HIERARCHY
ROOT Hips
{
  OFFSET 5.84602e-005 68.8428 3.50346
  CHANNELS 6 Xposition Yposition Zposition Zrotation Xrotation Yrotation
  JOINT Spine
  {
    OFFSET 0 8.597 -4.6522
    CHANNELS 3 Zrotation Xrotation Yrotation
    JOINT Spine1
    {
      OFFSET 0 7.8454 0.4098
      CHANNELS 3 Zrotation Xrotation Yrotation
      JOINT Spine2
      {
        OFFSET 0 9.7078 -2.1609
        CHANNELS 3 Zrotation Xrotation Yrotation
        JOINT Neck
        {
          OFFSET 0 21.8761 -0.4549
          CHANNELS 3 Zrotation Xrotation Yrotation
          JOINT Head
          {
            OFFSET 0 12.3537 3.3602
            CHANNELS 3 Zrotation Xrotation Yrotation
            End Site
            {
              OFFSET 0.0001 18.9506 0.5657
            }
          }
        }
        JOINT LeftShoulder
        {
          OFFSET 2.2086 21.1115 7.2329
          CHANNELS 3 Zrotation Xrotation Yrotation
          JOINT LeftArm
          {
            OFFSET 13.1193 3.0282 -4.8998
            CHANNELS 3 Zrotation Xrotation Yrotation
            JOINT LeftForeArm
            {
              OFFSET 27.4081 -0.0973053 -0.2375
              CHANNELS 3 Zrotation Xrotation Yrotation
              JOINT LeftHand
              {
                OFFSET 22.8641 0.0662994 -0.1369
                CHANNELS 3 Zrotation Xrotation Yrotation
                JOINT LeftHandIndex1
                {
                  OFFSET 8.8614 0.775009 2.4612
                  CHANNELS 3 Zrotation Xrotation Yrotation
                  JOINT LeftHandIndex2
                  {
                    OFFSET 3.3146 -0.808304 0.5841
                    CHANNELS 3 Zrotation Xrotation Yrotation
                    JOINT LeftHandIndex3
                    {
                      OFFSET 2.2628 -0.552002 0.3989
                      CHANNELS 3 Zrotation Xrotation Yrotation
                      End Site
                      {
                        OFFSET 1.6102 -0.4807 0.2612
                      }
                    }
                  }
                }
                JOINT LeftHandMiddle1
                {
                  OFFSET 8.9937 0.895004 0.2143
                  CHANNELS 3 Zrotation Xrotation Yrotation
                  JOINT LeftHandMiddle2
                  {
                    OFFSET 4.0984 0.0113983 -0.0242
                    CHANNELS 3 Zrotation Xrotation Yrotation
                    JOINT LeftHandMiddle3
                    {
                      OFFSET 2.2716 0.00689697 -0.0138001
                      CHANNELS 3 Zrotation Xrotation Yrotation
                      End Site
                      {
                        OFFSET 2.0404 -0.1441 0.0027
                      }
                    }
                  }
                }
                JOINT LeftHandRing1
                {
                  OFFSET 8.5234 0.597198 -2.0164
                  CHANNELS 3 Zrotation Xrotation Yrotation
                  JOINT LeftHandRing2
                  {
                    OFFSET 3.7188 -0.188293 -0.2328
                    CHANNELS 3 Zrotation Xrotation Yrotation
                    JOINT LeftHandRing3
                    {
                      OFFSET 2.1191 -0.106598 -0.1332
                      CHANNELS 3 Zrotation Xrotation Yrotation
                      End Site
                      {
                        OFFSET 1.8737 -0.2304 -0.0886
                      }
                    }
                  }
                }
                JOINT LeftHandPinky1
                {
                  OFFSET 7.9094 -0.601089 -3.4825
                  CHANNELS 3 Zrotation Xrotation Yrotation
                  JOINT LeftHandPinky2
                  {
                    OFFSET 2.2874 -0.477005 -0.6314
                    CHANNELS 3 Zrotation Xrotation Yrotation
                    JOINT LeftHandPinky3
                    {
                      OFFSET 1.6774 -0.349396 -0.4633
                      CHANNELS 3 Zrotation Xrotation Yrotation
                      End Site
                      {
                        OFFSET 1.4888 -0.4091 -0.3416
                      }
                    }
                  }
                }
                JOINT LeftHandThumb1
                {
                  OFFSET 1.833 -1.3875 1.3896
                  CHANNELS 3 Zrotation Xrotation Yrotation
                  JOINT LeftHandThumb2
                  {
                    OFFSET 3.4129 -1.121 2.5732
                    CHANNELS 3 Zrotation Xrotation Yrotation
                    JOINT LeftHandThumb3
                    {
                      OFFSET 2.2474 -0.804199 1.6192
                      CHANNELS 3 Zrotation Xrotation Yrotation
                      End Site
                      {
                        OFFSET 1.6527 -0.5689 1.1317
                      }
                    }
                  }
                }
              }
            }
          }
        }
        JOINT RightShoulder
        {
          OFFSET -2.2086 21.1115 7.2329
          CHANNELS 3 Zrotation Xrotation Yrotation
          JOINT RightArm
          {
            OFFSET -13.1216 3.0287 -4.9007
            CHANNELS 3 Zrotation Xrotation Yrotation
            JOINT RightForeArm
            {
              OFFSET -27.4081 -0.0973053 -0.2375
              CHANNELS 3 Zrotation Xrotation Yrotation
              JOINT RightHand
              {
                OFFSET -22.8641 0.0664063 -0.1369
                CHANNELS 3 Zrotation Xrotation Yrotation
                JOINT RightHandIndex1
                {
                  OFFSET -8.8614 0.774994 2.4612
                  CHANNELS 3 Zrotation Xrotation Yrotation
                  JOINT RightHandIndex2
                  {
                    OFFSET -3.3146 -0.808304 0.5841
                    CHANNELS 3 Zrotation Xrotation Yrotation
                    JOINT RightHandIndex3
                    {
                      OFFSET -2.2628 -0.552002 0.3989
                      CHANNELS 3 Zrotation Xrotation Yrotation
                      End Site
                      {
                        OFFSET -1.6102 -0.4807 0.2612
                      }
                    }
                  }
                }
                JOINT RightHandMiddle1
                {
                  OFFSET -8.9937 0.894989 0.2143
                  CHANNELS 3 Zrotation Xrotation Yrotation
                  JOINT RightHandMiddle2
                  {
                    OFFSET -4.0984 0.0113983 -0.0242
                    CHANNELS 3 Zrotation Xrotation Yrotation
                    JOINT RightHandMiddle3
                    {
                      OFFSET -2.2716 0.00691223 -0.0138001
                      CHANNELS 3 Zrotation Xrotation Yrotation
                      End Site
                      {
                        OFFSET -2.0404 -0.1441 0.0027
                      }
                    }
                  }
                }
                JOINT RightHandRing1
                {
                  OFFSET -8.5234 0.597198 -2.0164
                  CHANNELS 3 Zrotation Xrotation Yrotation
                  JOINT RightHandRing2
                  {
                    OFFSET -3.7188 -0.188309 -0.2328
                    CHANNELS 3 Zrotation Xrotation Yrotation
                    JOINT RightHandRing3
                    {
                      OFFSET -2.1191 -0.106598 -0.1332
                      CHANNELS 3 Zrotation Xrotation Yrotation
                      End Site
                      {
                        OFFSET -1.8737 -0.2304 -0.0886
                      }
                    }
                  }
                }
                JOINT RightHandPinky1
                {
                  OFFSET -7.9094 -0.601105 -3.4825
                  CHANNELS 3 Zrotation Xrotation Yrotation
                  JOINT RightHandPinky2
                  {
                    OFFSET -2.2874 -0.477005 -0.6314
                    CHANNELS 3 Zrotation Xrotation Yrotation
                    JOINT RightHandPinky3
                    {
                      OFFSET -1.6774 -0.349396 -0.4633
                      CHANNELS 3 Zrotation Xrotation Yrotation
                      End Site
                      {
                        OFFSET -1.4888 -0.4091 -0.3416
                      }
                    }
                  }
                }
                JOINT RightHandThumb1
                {
                  OFFSET -1.833 -1.38751 1.3896
                  CHANNELS 3 Zrotation Xrotation Yrotation
                  JOINT RightHandThumb2
                  {
                    OFFSET -3.41299 -1.12099 2.5732
                    CHANNELS 3 Zrotation Xrotation Yrotation
                    JOINT RightHandThumb3
                    {
                      OFFSET -2.24741 -0.804108 1.6192
                      CHANNELS 3 Zrotation Xrotation Yrotation
                      End Site
                      {
                        OFFSET -1.6527 -0.5689 1.1317
                      }
                    }
                  }
                }
              }
            }
          }
        }
      }
    }
  }
  JOINT RightUpLeg
  {
    OFFSET -9.1966 3.8861 -0.7581
    CHANNELS 3 Zrotation Xrotation Yrotation
    JOINT RightLeg
    {
      OFFSET -0.7359 -41.0265 0
      CHANNELS 3 Zrotation Xrotation Yrotation
      JOINT RightFoot
      {
        OFFSET 0 -40.2855 0
        CHANNELS 3 Zrotation Xrotation Yrotation
        JOINT RightToeBase
        {
          OFFSET 0 -5.6122 11.7359
          CHANNELS 3 Zrotation Xrotation Yrotation
          End Site
          {
            OFFSET 0 0 7.8731
          }
        }
      }
    }
  }
  JOINT LeftUpLeg
  {
    OFFSET 9.1965 3.8864 -0.7581
    CHANNELS 3 Zrotation Xrotation Yrotation
    JOINT LeftLeg
    {
      OFFSET 0.7359 -41.0268 0
      CHANNELS 3 Zrotation Xrotation Yrotation
      JOINT LeftFoot
      {
        OFFSET 0 -40.2855 0
        CHANNELS 3 Zrotation Xrotation Yrotation
        JOINT LeftToeBase
        {
          OFFSET 0 -5.6122 11.7359
          CHANNELS 3 Zrotation Xrotation Yrotation
          End Site
          {
            OFFSET 0 0 7.8731
          }
        }
      }
    }
  }
}
MOTION
Frames:	5
Frame Time:	0.0333333
5.84602e-005 68.8428 3.50346 0 0 -0 0 0 -0 0 0 -0 0 0 -0 0 0 -0 0 0 -0 0 0 -0 0 0 -0 0 0 -0 0 0 -0 0 0 -0 0 0 -0 0 0 -0 0 0 -0 -0.0146107 -8.87603e-005 -2.63497e-007 2.99804e-018 -2.42657e-020 -1.42182e-022 0 0 -0 -0.0187562 -0.001176 5.858e-005 5.06224e-018 3.88251e-019 1.21329e-020 0 0 -0 -0.012269 -0.00324817 0.000675346 -1.74678e-018 3.88251e-019 -0 0 0 -0 0 0 -0 0 0 -0 0 0 -0 0 0 -0 0 0 -0 0 0 -0 0 0 -0 0 0 -0 0 0 -0 0 0 -0 0.0149955 -9.10982e-005 2.64101e-007 -9.69331e-018 1.21329e-020 -4.7394e-023 0 0 -0 0.0189956 -0.00119102 -5.96516e-005 -5.41541e-019 0 2.42657e-020 0 0 -0 0.0122698 -0.00324857 -0.000673756 -2.00796e-019 0 -1.94126e-019 0 0 -0 0 0 -0 0 0 -0 3.39842 1.33031 -0.0637918 -5.65207e-008 0.834868 -0.000436188 -3.39935 -2.16518 -0.0642563 -8.89002e-024 -1.18485e-023 -1.48106e-024 -3.39844 1.35642 0.0640283 -3.18788e-007 0.782166 -0.000588827 3.39931 -2.13858 0.0634662 1.1399e-023 0 -0 
38.0105 27.7641 14.9103 92.8129 89.9863 135.18 7.24257 3.68085 3.89274 14.2673 7.8163 7.31358 14.2673 7.8163 7.31357 1.66523e-006 -0.508949 -4.59042e-005 -6.44458e-007 -0.361959 2.30192e-005 10.5894 0.930087 38.097 3.01336 31.9337 -32.3621 45.5672 -28.0591 -52.7174 -10.4154 8.56848 1.23136 -3.97569e-016 1.59028e-015 3.18055e-015 3.97569e-016 1.59028e-015 1.59028e-015 -4.41391e-032 1.59028e-015 1.59028e-015 -3.97569e-016 1.59028e-015 3.18055e-015 -0.0145839 -8.83343e-005 -5.95022e-007 -3.97569e-016 -4.77083e-015 -1.59028e-015 -3.97569e-016 1.59028e-015 3.18055e-015 -0.0187532 -0.00117566 5.93372e-005 -5.78975e-008 1.70395e-007 1.21934e-008 -3.97569e-016 1.59028e-015 3.18055e-015 -0.0122824 -0.00324983 0.000678477 -5.86752e-008 1.70646e-007 1.21104e-008 -3.97569e-016 1.59028e-015 3.18055e-015 3.97569e-016 1.59028e-015 1.59028e-015 -4.41391e-032 1.59028e-015 1.59028e-015 28.4808 6.69331 19.2511 35.5598 -52.4503 -28.6715 0.0541659 -15.3055 1.28287 30.528 -2.99464 -3.84169 -3.18055e-015 0 9.54166e-015 6.69892e-007 9.81891e-007 -1.21375e-006 -1.41245e-030 6.36111e-015 1.27222e-014 -3.18055e-015 0 9.54166e-015 0.014967 -8.73816e-005 7.78516e-007 3.18055e-015 6.36111e-015 -0 -3.18055e-015 0 9.54166e-015 0.0190446 -0.00119619 -6.2928e-005 -6.36111e-015 -6.36111e-015 -0 -3.18055e-015 0 9.54166e-015 0.0122577 -0.00324194 -0.000672101 3.18055e-015 -3.18055e-015 1.27222e-014 -3.18055e-015 0 9.54166e-015 6.69892e-007 9.81891e-007 -1.21375e-006 -1.41245e-030 6.36111e-015 1.27222e-014 147.295 -36.5821 155.369 82.0902 47.3734 -81.5803 -1.05219 11.3592 10.3231 -3.97569e-015 0 -1.59028e-015 131.773 -45.4982 128.865 39.5977 67.6976 -36.4502 -19.5175 10.0673 10.4276 -8.60009e-007 1.88687e-006 2.32769e-006 
38.0081 27.7645 15.185 92.8129 89.9863 135.18 7.42082 3.72003 3.85432 14.6259 7.90006 7.21918 14.6259 7.90005 7.21917 -0.000233747 -1.00692 6.98791e-005 -3.91912e-006 -0.718811 -2.85951e-005 9.21185 1.17287 37.693 3.01337 31.9337 -32.3621 45.3821 -27.851 -52.3953 -9.82518 8.82892 1.28562 -2.11182e-007 2.61224e-008 1.5953e-008 7.95139e-016 1.59028e-015 1.59028e-015 -2.11182e-007 2.61225e-008 1.5953e-008 -2.11182e-007 2.61224e-008 1.5953e-008 -0.0146157 -8.81197e-005 1.98239e-006 -2.11183e-007 2.61204e-008 1.59564e-008 -2.11182e-007 2.61224e-008 1.5953e-008 -0.0187446 -0.00117494 5.96698e-005 -2.11183e-007 2.61199e-008 1.59594e-008 -2.11182e-007 2.61224e-008 1.5953e-008 -0.0122976 -0.00325598 0.000678741 -2.11182e-007 2.61218e-008 1.59618e-008 -2.11182e-007 2.61224e-008 1.5953e-008 7.95139e-016 1.59028e-015 1.59028e-015 -2.11182e-007 2.61225e-008 1.5953e-008 27.8661 6.69696 19.2711 35.4308 -52.3707 -28.5237 0.0541711 -15.3055 1.28287 30.3556 -2.96676 -3.74627 3.35998e-007 4.90832e-007 -6.06373e-007 3.35998e-007 4.90832e-007 -6.06373e-007 3.53113e-031 -6.36111e-015 3.18055e-015 3.35998e-007 4.90832e-007 -6.06373e-007 0.014964 -8.92952e-005 -1.0846e-006 7.06225e-031 -3.18055e-015 1.27222e-014 3.35998e-007 4.90832e-007 -6.06373e-007 0.0190123 -0.00119641 -6.56192e-005 -9.08636e-007 1.87136e-006 1.76152e-006 3.35998e-007 4.90832e-007 -6.06373e-007 0.0123312 -0.00325806 -0.000679004 3.18055e-015 -3.18055e-015 -9.54166e-015 3.35998e-007 4.90832e-007 -6.06373e-007 3.35998e-007 4.90832e-007 -6.06373e-007 3.53113e-031 -6.36111e-015 3.18055e-015 146.743 -36.2257 155.618 82.0833 47.3728 -81.5492 -0.366558 11.0759 9.72956 2.05851e-006 -7.32569e-007 -4.30606e-006 131.289 -45.4262 128.814 39.5892 67.694 -36.4398 -19.2281 9.9594 10.082 -1.59028e-015 -9.54166e-015 -1.59028e-015 
38.0057 27.7648 15.4598 92.778 89.9863 135.215 7.59918 3.75915 3.8159 14.9849 7.98341 7.1245 14.9849 7.98342 7.12452 4.27833e-006 -1.50556 9.55313e-006 -5.59798e-006 -1.07595 3.73133e-006 7.83229 1.42598 37.2939 3.01337 31.9337 -32.3621 45.1961 -27.6437 -52.073 -9.23452 9.09002 1.33722 -2.11173e-007 2.59924e-008 1.61996e-008 -2.11173e-007 2.59925e-008 1.61996e-008 -2.11173e-007 2.59924e-008 1.61996e-008 -2.11173e-007 2.59924e-008 1.61996e-008 -0.0146241 -8.9156e-005 -4.65186e-006 -2.11174e-007 2.59903e-008 1.62031e-008 -2.11173e-007 2.59924e-008 1.61996e-008 -0.0187627 -0.00117563 6.02651e-005 -2.11174e-007 2.59899e-008 1.62061e-008 -2.11173e-007 2.59924e-008 1.61996e-008 -0.0122687 -0.00324828 0.000673627 -2.11173e-007 2.59918e-008 1.62084e-008 -2.11173e-007 2.59924e-008 1.61996e-008 -2.11173e-007 2.59925e-008 1.61996e-008 -2.11173e-007 2.59924e-008 1.61996e-008 27.2511 6.70042 19.2911 35.3016 -52.2914 -28.376 0.0541733 -15.3055 1.28286 30.1832 -2.93919 -3.65076 3.37047e-007 4.9072e-007 -6.05872e-007 6.74094e-007 9.81439e-007 -1.21174e-006 3.37047e-007 4.9072e-007 -6.05872e-007 3.37047e-007 4.9072e-007 -6.05872e-007 0.0149929 -9.0523e-005 5.32011e-007 3.37058e-007 4.9064e-007 -6.05936e-007 3.37047e-007 4.9072e-007 -6.05872e-007 0.0189852 -0.00119092 -5.85802e-005 3.34711e-006 -2.27932e-006 -2.11343e-006 3.37047e-007 4.9072e-007 -6.05872e-007 0.0122556 -0.00324514 -0.000679232 3.37036e-007 4.90654e-007 -6.05934e-007 3.37047e-007 4.9072e-007 -6.05872e-007 6.74094e-007 9.81439e-007 -1.21174e-006 3.37047e-007 4.9072e-007 -6.05872e-007 146.191 -35.8708 155.87 82.0763 47.3724 -81.5181 0.315711 10.7854 9.13959 3.97569e-015 -3.18055e-015 3.97569e-016 130.806 -45.3538 128.765 39.5808 67.6904 -36.4294 -18.9394 9.84965 9.73709 -1.29444e-005 1.95039e-007 3.90309e-006 
38.0033 27.765 15.7345 92.8129 89.9863 135.18 7.77767 3.79824 3.7775 15.3442 8.06634 7.0296 15.3442 8.06635 7.02958 -3.7079e-005 -2.005 1.40778e-005 1.90629e-006 -1.43331 -7.32302e-007 6.45114 1.68923 36.8999 3.01336 31.9337 -32.3621 45.009 -27.4373 -51.7504 -8.64339 9.35176 1.38614 7.95139e-016 -1.59028e-015 -0 1.19271e-015 -3.18055e-015 1.59028e-015 1.19271e-015 -1.59028e-015 1.59028e-015 7.95139e-016 -1.59028e-015 -0 -0.0146059 -8.88766e-005 -1.33663e-006 8.82781e-032 -3.18055e-015 1.59028e-015 7.95139e-016 -1.59028e-015 -0 -0.0187673 -0.00117684 5.71528e-005 7.95139e-016 1.59028e-015 3.18055e-015 7.95139e-016 -1.59028e-015 -0 -0.0122613 -0.00324711 0.000672698 3.97569e-016 0 -1.59028e-015 7.95139e-016 -1.59028e-015 -0 1.19271e-015 -3.18055e-015 1.59028e-015 1.19271e-015 -1.59028e-015 1.59028e-015 26.6358 6.70364 19.3112 35.1723 -52.2122 -28.2282 0.0541664 -15.3055 1.28286 30.0107 -2.91187 -3.55517 3.18055e-015 6.36111e-015 -3.18055e-015 -3.38096e-007 -4.90609e-007 6.05367e-007 -0 0 9.54166e-015 3.18055e-015 6.36111e-015 -3.18055e-015 0.0150455 -8.58829e-005 4.98467e-007 9.54166e-015 3.18055e-015 6.36111e-015 3.18055e-015 6.36111e-015 -3.18055e-015 0.0189746 -0.00118801 -5.94753e-005 0 0 -3.18055e-015 3.18055e-015 6.36111e-015 -3.18055e-015 0.0122736 -0.00324911 -0.000676324 3.18055e-015 3.18055e-015 -3.18055e-015 3.18055e-015 6.36111e-015 -3.18055e-015 -3.38096e-007 -4.90609e-007 6.05367e-007 -0 0 9.54166e-015 145.64 -35.5179 156.125 82.0691 47.3718 -81.4868 0.994543 10.4876 8.55334 -4.77083e-015 -9.54166e-015 -3.97569e-016 130.324 -45.2813 128.717 39.5728 67.6869 -36.4196 -18.6515 9.73804 9.39284 -2.2632e-006 -4.35329e-007 4.2105e-006 
